<svg width="516" height="496" viewBox="0 0 516 496" fill="none" xmlns="http://www.w3.org/2000/svg">
<path d="M345.314 340.352C278.527 403.67 208.252 450.612 148.636 475.33C118.827 487.69 91.7078 494.483 69.0374 495.005C46.367 495.527 28.2018 489.779 16.2043 477.124C4.20683 464.469 -0.565223 446.023 1.16383 423.413C2.8929 400.803 11.1213 374.084 25.0522 344.976C52.9124 286.762 103.533 219.088 170.319 155.77C237.106 92.4519 307.382 45.5099 366.997 20.7913C396.807 8.4313 423.926 1.63833 446.596 1.11657C469.266 0.594803 487.432 6.34301 499.429 18.9978C511.427 31.6526 516.199 50.0983 514.47 72.7086C512.741 95.3191 504.512 122.037 490.581 151.146C462.721 209.359 412.101 277.034 345.314 340.352Z" stroke="#D5FE40"/>
</svg>
