<svg width="56" height="35" viewBox="0 0 56 35" fill="none" xmlns="http://www.w3.org/2000/svg">
<path d="M15.2 11.48L7.08 23.24L15.2 35H8.92L0.8 23.24L8.92 11.48H15.2ZM17.1844 0.479999H28.3444C29.9177 0.479999 31.171 0.959999 32.1044 1.92C33.0644 2.85333 33.5444 4.10667 33.5444 5.68V15.2C33.5444 16.4 33.2644 17.4267 32.7044 18.28C32.1444 19.1067 31.371 19.6933 30.3844 20.04L34.7444 34.96H30.8644C30.251 34.96 29.7044 34.7867 29.2244 34.44C28.771 34.0933 28.4644 33.6267 28.3044 33.04L24.6244 20.4H22.6244V34.96H17.1844V0.479999ZM22.6244 15H26.1044C26.7177 15 27.1977 14.8267 27.5444 14.48C27.9177 14.1067 28.1044 13.6133 28.1044 13V7.88C28.1044 7.26667 27.9177 6.78666 27.5444 6.44C27.1977 6.06667 26.7177 5.88 26.1044 5.88H22.6244V15ZM35.5344 11.48H41.8144L49.9344 23.24L41.8144 35H35.5344L43.6544 23.24L35.5344 11.48ZM51.5188 35V30.56H55.9588V35H51.5188Z" fill="url(#paint0_linear_122_4)"/>
<defs>
<linearGradient id="paint0_linear_122_4" x1="8.52979e-07" y1="24.5" x2="57" y2="23.5" gradientUnits="userSpaceOnUse">
<stop stop-color="#D5FE40"/>
<stop offset="0.505208" stop-color="#E8FF94"/>
<stop offset="1" stop-color="#D5FE40"/>
</linearGradient>
</defs>
</svg>
